Coordinates
version=1
nRows=8
nColumns=36
inDegrees=yes

Units are S.I. units (second, meters, Newtons, ...)
If the header above contains a line with 'inDegrees', this indicates whether rotational values are in degrees (yes) or radians (no).

endheader
time	pelvis_tilt	pelvis_list	pelvis_rotation	pelvis_tx	pelvis_ty	pelvis_tz	hip_flexion_r	hip_adduction_r	hip_rotation_r	knee_angle_r	knee_angle_r_beta	ankle_angle_r	subtalar_angle_r	mtp_angle_r	hip_flexion_l	hip_adduction_l	hip_rotation_l	knee_angle_l	knee_angle_l_beta	ankle_angle_l	subtalar_angle_l	mtp_angle_l	lumbar_extension	lumbar_bending	lumbar_rotation	arm_flex_r	arm_add_r	arm_rot_r	elbow_flex_r	pro_sup_r	arm_flex_l	arm_add_l	arm_rot_l	elbow_flex_l	pro_sup_l
      1.50000000	     -7.99846434	     -2.25049611	     -0.17790102	     -0.46889722	      1.26997466	     -0.58499958	     25.33394658	     -6.27160338	     -9.15566546	     17.14323722	      0.29920593	    -17.06535023	      2.18128976	     -7.48127094	     29.28052437	    -10.84586457	     -8.31705014	     19.68133520	      0.34350410	    -17.23922004	     -6.06653611	     -7.48127094	    -17.64646486	     -1.34646158	     -4.80838625	    -59.95661850	    -43.42769932	    -20.43754444	    102.74197713	     79.52175626	    -39.00339189	    -46.99100628	    -26.30299493	    117.41198826	     69.35024825
      1.51000000	     -7.93426373	     -2.13182438	     -0.34429783	     -0.45799305	      1.24735354	     -0.58480992	     25.61521847	     -6.44887330	     -9.02697676	     17.08347142	      0.29816282	    -17.19248904	      1.79378010	     -7.48440392	     29.56597336	    -10.96248220	     -8.51490448	     19.51866481	      0.34066497	    -17.54870995	     -6.77799349	     -7.48440392	    -17.56306349	     -1.58747713	     -5.26715580	    -59.45324758	    -43.56252288	    -19.19114761	    102.89409039	     83.58284049	    -40.27159351	    -46.05400892	    -26.88314387	    117.18427867	     72.43494129
      1.52000000	     -7.77635504	     -2.06831721	     -0.42590339	     -0.44662321	      1.22498548	     -0.58427761	     25.84170594	     -6.63181153	     -9.10292271	     17.14484015	      0.29923391	    -16.96694980	      1.69604795	     -7.48472130	     29.88616999	    -11.13625219	     -8.74723524	     19.74253135	      0.34457217	    -17.31454468	     -6.93212451	     -7.48472130	    -17.64470625	     -1.68096859	     -5.23917797	    -59.29647117	    -42.85946885	    -18.59194106	    102.96239600	     83.38710931	    -40.45385177	    -45.47201928	    -26.36431554	    116.81285983	     72.34555086
      1.53000000	     -7.72181457	     -1.89708762	     -0.67983960	     -0.43469919	      1.20006433	     -0.58347178	     26.36008569	     -6.84787126	     -8.80654382	     17.46855488	      0.30488380	    -16.71600437	      1.66472208	     -7.48545552	     30.27782336	    -11.19387534	     -8.85074672	     20.09495211	      0.35072308	    -17.54857423	     -7.52340772	     -7.48545552	    -17.44605798	     -1.99511663	     -5.04247177	    -58.39157484	    -42.18651213	    -17.00688067	    102.78428014	     83.54775930	    -40.09829590	    -44.84137287	    -25.14370703	    116.15848050	     72.55395811
      1.54000000	     -7.53302853	     -1.83567420	     -0.79443483	     -0.42233952	      1.17262203	     -0.58374904	     26.63506445	     -7.02258169	     -8.67937526	     17.72023775	      0.30927649	    -16.38959545	      1.67742847	     -7.48588483	     30.62151367	    -11.27414512	     -8.84785792	     20.63847334	      0.36020931	    -17.27630526	     -7.44112798	     -7.48588483	    -17.43981062	     -2.08598538	     -4.94749064	    -57.93805258	    -41.32080915	    -16.31560587	    102.85927998	     83.29432723	    -40.16794987	    -44.04894276	    -24.46269137	    115.77318441	     72.45430500
      1.55000000	     -7.39292768	     -1.72682541	     -0.93683813	     -0.41100770	      1.14519168	     -0.58400210	     27.01273404	     -7.23011022	     -8.44847433	     18.16357202	      0.31701414	    -15.74511408	      1.86491075	     -7.48673034	     31.01280974	    -11.28445121	     -8.70625034	     21.36654594	      0.37291658	    -16.75061134	     -7.69709309	     -7.48673034	    -17.25538356	     -2.29466886	     -4.76968058	    -56.40449529	    -40.65450015	    -14.51434286	    102.26422758	     83.72084865	    -39.34547121	    -43.39936984	    -23.05813932	    115.07770446	     72.89053604
      1.56000000	     -7.26944536	     -1.71534944	     -0.99693247	     -0.40309643	      1.11858692	     -0.58280373	     27.66315928	     -7.35402260	     -8.16365791	     19.21929591	      0.33543999	    -14.46923328	      1.61251191	     -7.48756426	     31.71703894	    -11.44724364	     -8.51465046	     22.84570414	      0.39873276	    -15.33349863	     -8.03186838	     -7.48756426	    -17.38572421	     -2.32834348	     -4.76570002	    -54.49089883	    -39.44898547	    -13.34853768	    102.00125697	     83.33441863	    -38.34966256	    -42.39645472	    -22.04160654	    114.25498107	     72.77170044
      1.57000000	     -7.15105029	     -1.79454155	     -1.02971224	     -0.39850917	      1.09127432	     -0.58070272	     28.82876065	     -7.43460487	     -7.80605148	     21.33884900	      0.37243317	    -12.19126176	      0.97855325	     -7.48873190	     32.88649799	    -11.79155446	     -8.21554727	     25.31997910	      0.44191700	    -13.03229339	     -8.57366225	     -7.48873190	    -17.69091670	     -2.27106549	     -4.76854913	    -51.91394036	    -38.08495747	    -12.00824222	    101.35132266	     82.47219266	    -36.81624954	    -41.41112939	    -20.90231007	    113.07116161	     72.39008934
